<svg xmlns="http://www.w3.org/2000/svg" viewBox="0 0 900 838" width="900" height="838" role="img" aria-label="Grove-G1 architecture">
<title>Grove-G1 architecture</title>
<style>
  :root {
    --bg: #ffffff; --fg: #1f2328; --muted: #656d76; --line: #d0d7de;
    --card: #ffffff; --card-br: #d0d7de;
    --band: #f6f8fa; --band-br: #d8dee4;
    --nav: #0969da; --nav-bg: #ddf4ff;
    --man: #8250df; --man-bg: #fbefff;
    --state: #1a7f37; --state-bg: #dafbe1;
    --ctrl: #bc4c00; --ctrl-bg: #fff1e5;
    --sim: #6e7781; --sim-bg: #f6f8fa;
    --hw: #cf222e; --hw-bg: #ffebe9;
  }
  @media (prefers-color-scheme: dark) {
    :root {
      --bg: #0d1117; --fg: #e6edf3; --muted: #8b949e; --line: #30363d;
      --card: #161b22; --card-br: #30363d;
      --band: #11161d; --band-br: #21262d;
      --nav: #58a6ff; --nav-bg: #0c2d6b33;
      --man: #bc8cff; --man-bg: #3f2a6b33;
      --state: #3fb950; --state-bg: #12351d33;
      --ctrl: #db6d28; --ctrl-bg: #4d2b0033;
      --sim: #8b949e; --sim-bg: #161b22;
      --hw: #f85149; --hw-bg: #5c1a1a33;
    }
  }

  text { font-family: -apple-system, BlinkMacSystemFont, "Segoe UI", Helvetica, Arial, sans-serif;
         fill: var(--fg); }
  .ttl  { font-size: 17px; font-weight: 700; }
  .sub  { font-size: 11.5px; fill: var(--muted); }
  .t    { font-size: 12.5px; font-weight: 650; }
  .s    { font-size: 10px;   fill: var(--muted); }
  .lbl  { font-size: 9.5px;  fill: var(--muted); font-weight: 500; }
  .grp  { font-size: 10px; font-weight: 700; letter-spacing: .08em; }

  .card { fill: var(--card); stroke: var(--card-br); stroke-width: 1; rx: 8; }
  .band { fill: var(--band); stroke: var(--band-br); stroke-width: 1; rx: 10; }

  /* Edges: base stroke carries the flow colour at low opacity, the pulse rides on top. */
  .e { fill: none; stroke-width: 1.6; opacity: .42; stroke-linecap: round;
       stroke-linejoin: round; }
  .e-dash { stroke-dasharray: 3 4; }
  .e-state { stroke: var(--state); } .e-nav  { stroke: var(--nav); }
  .e-man   { stroke: var(--man); }   .e-ctrl { stroke: var(--ctrl); }

  .pulse { fill: none; stroke-width: 2.8; stroke-linecap: round; stroke-linejoin: round;
           stroke-dasharray: 8 100; stroke-dashoffset: 8;
           animation: pulse 3.6s cubic-bezier(.5,0,.5,1) infinite; }
  .p-state { stroke: var(--state); } .p-nav  { stroke: var(--nav); }
  .p-man   { stroke: var(--man); }   .p-ctrl { stroke: var(--ctrl); }
  @keyframes pulse { to { stroke-dashoffset: -100; } }

  @media (prefers-reduced-motion: reduce) {
    .pulse { display: none; }
    .e { opacity: .85; }
  }
</style>
<defs>
<marker id="as" viewBox="0 0 10 10" refX="8.5" refY="5" markerWidth="5.5" markerHeight="5.5" orient="auto-start-reverse"><path d="M0,0 L10,5 L0,10 z" fill="var(--state)"/></marker>
<marker id="an" viewBox="0 0 10 10" refX="8.5" refY="5" markerWidth="5.5" markerHeight="5.5" orient="auto-start-reverse"><path d="M0,0 L10,5 L0,10 z" fill="var(--nav)"/></marker>
<marker id="am" viewBox="0 0 10 10" refX="8.5" refY="5" markerWidth="5.5" markerHeight="5.5" orient="auto-start-reverse"><path d="M0,0 L10,5 L0,10 z" fill="var(--man)"/></marker>
<marker id="ac" viewBox="0 0 10 10" refX="8.5" refY="5" markerWidth="5.5" markerHeight="5.5" orient="auto-start-reverse"><path d="M0,0 L10,5 L0,10 z" fill="var(--ctrl)"/></marker>
</defs>
<rect width="900" height="838" fill="var(--bg)"/>
<text class="ttl" x="28" y="36">Grove-G1</text>
<text class="sub" x="112" y="36">ROS 2 autonomy stack for the Unitree G1 humanoid</text>
<rect class="card" x="326" y="62" width="248" height="30" rx="15"/><text class="t" x="450" y="77.5" text-anchor="middle" dominant-baseline="middle">ros2 launch g1_bringup bringup.launch.py</text>
<rect class="card" x="326" y="108" width="248" height="44"/>
<path d="M326.5,116 v28" stroke="var(--man)" stroke-width="3.5" stroke-linecap="round"/>
<text class="t" x="339" y="125.0" dominant-baseline="middle">g1_bt_executor</text>
<text class="s" x="339" y="139.0" dominant-baseline="middle">BehaviorTree.CPP v4 mission tree</text>
<path class="e e-man" d="M450,92 L450,108" marker-end="url(#am)"/>
<rect class="band" x="28" y="184" width="252" height="306"/>
<path d="M39,184.5 h230" stroke="var(--state)" stroke-width="2.5" stroke-linecap="round" opacity="0.85"/>
<text class="grp" x="41" y="205" fill="var(--state)">SENSING AND STATE</text>
<rect class="card" x="44" y="216" width="220" height="42"/>
<path d="M44.5,224 v26" stroke="var(--state)" stroke-width="3.5" stroke-linecap="round"/>
<text class="t" x="57" y="232.0" dominant-baseline="middle">LiDAR front end</text>
<text class="s" x="57" y="246.0" dominant-baseline="middle">livox_ros_driver2 or the sim relay</text>
<rect class="card" x="44" y="270" width="220" height="42"/>
<path d="M44.5,278 v26" stroke="var(--state)" stroke-width="3.5" stroke-linecap="round"/>
<text class="t" x="57" y="286.0" dominant-baseline="middle">fastlio_mapping</text>
<text class="s" x="57" y="300.0" dominant-baseline="middle">FAST-LIO2 on the Mid360</text>
<rect class="card" x="44" y="324" width="220" height="42"/>
<path d="M44.5,332 v26" stroke="var(--state)" stroke-width="3.5" stroke-linecap="round"/>
<text class="t" x="57" y="340.0" dominant-baseline="middle">g1_odometry_publisher</text>
<text class="s" x="57" y="354.0" dominant-baseline="middle">odom to base_footprint</text>
<rect class="card" x="44" y="378" width="220" height="42"/>
<path d="M44.5,386 v26" stroke="var(--state)" stroke-width="3.5" stroke-linecap="round"/>
<text class="t" x="57" y="394.0" dominant-baseline="middle">pointcloud_to_laserscan</text>
<text class="s" x="57" y="408.0" dominant-baseline="middle">3D cloud to a 2D scan</text>
<rect class="card" x="44" y="432" width="220" height="42"/>
<path d="M44.5,440 v26" stroke="var(--state)" stroke-width="3.5" stroke-linecap="round"/>
<text class="t" x="57" y="448.0" dominant-baseline="middle">g1_lowstate_joint_states</text>
<text class="s" x="57" y="462.0" dominant-baseline="middle">legs and waist into TF</text>
<rect class="band" x="308" y="184" width="278" height="306"/>
<path d="M319,184.5 h256" stroke="var(--nav)" stroke-width="2.5" stroke-linecap="round" opacity="0.85"/>
<text class="grp" x="321" y="205" fill="var(--nav)">NAVIGATION</text>
<rect class="card" x="326" y="216" width="244" height="42"/>
<path d="M326.5,224 v26" stroke="var(--nav)" stroke-width="3.5" stroke-linecap="round"/>
<text class="t" x="339" y="232.0" dominant-baseline="middle">Nav2</text>
<text class="s" x="339" y="246.0" dominant-baseline="middle">planner, controller, behaviour tree</text>
<rect class="card" x="326" y="270" width="244" height="42"/>
<path d="M326.5,278 v26" stroke="var(--nav)" stroke-width="3.5" stroke-linecap="round"/>
<text class="t" x="339" y="286.0" dominant-baseline="middle">slam_toolbox / AMCL</text>
<text class="s" x="339" y="300.0" dominant-baseline="middle">map to odom</text>
<rect class="card" x="326" y="324" width="244" height="42"/>
<path d="M326.5,332 v26" stroke="var(--nav)" stroke-width="3.5" stroke-linecap="round"/>
<text class="t" x="339" y="340.0" dominant-baseline="middle">g1_base_approach</text>
<text class="s" x="339" y="354.0" dominant-baseline="middle">final alignment before a grasp</text>
<rect class="card" x="326" y="378" width="244" height="42"/>
<path d="M326.5,386 v26" stroke="var(--nav)" stroke-width="3.5" stroke-linecap="round"/>
<text class="t" x="339" y="394.0" dominant-baseline="middle">g1_gait_shaper</text>
<text class="s" x="339" y="408.0" dominant-baseline="middle">velocity limits and the gate</text>
<rect class="band" x="602" y="184" width="270" height="306"/>
<path d="M613,184.5 h248" stroke="var(--man)" stroke-width="2.5" stroke-linecap="round" opacity="0.85"/>
<text class="grp" x="615" y="205" fill="var(--man)">MANIPULATION</text>
<rect class="card" x="618" y="216" width="238" height="42"/>
<path d="M618.5,224 v26" stroke="var(--man)" stroke-width="3.5" stroke-linecap="round"/>
<text class="t" x="631" y="232.0" dominant-baseline="middle">g1_manipulation_server</text>
<text class="s" x="631" y="246.0" dominant-baseline="middle">pick, place, postures</text>
<rect class="card" x="618" y="270" width="238" height="42"/>
<path d="M618.5,278 v26" stroke="var(--man)" stroke-width="3.5" stroke-linecap="round"/>
<text class="t" x="631" y="286.0" dominant-baseline="middle">move_group</text>
<text class="s" x="631" y="300.0" dominant-baseline="middle">plan and collision check</text>
<rect class="card" x="618" y="324" width="238" height="42"/>
<path d="M618.5,332 v26" stroke="var(--man)" stroke-width="3.5" stroke-linecap="round"/>
<text class="t" x="631" y="340.0" dominant-baseline="middle">g1_object_pose_source</text>
<text class="s" x="631" y="354.0" dominant-baseline="middle">refuses on hardware</text>
<rect x="819.2" y="332" width="27.799999999999997" height="13.5" rx="6.75" fill="var(--sim-bg)" stroke="var(--sim)" stroke-width="0.9" opacity="0.9"/><text x="833.1" y="339.4" text-anchor="middle" dominant-baseline="middle" font-size="8" font-weight="700" letter-spacing=".05em" fill="var(--sim)">SIM</text>
<path class="e e-state" d="M154.0,258 L154.0,270" marker-end="url(#as)"/>
<path class="pulse p-state" d="M154.0,258 L154.0,270" pathLength="100" style="animation-delay:0.0s"/>
<rect x="71.75" y="257" width="164.5" height="14" rx="4" fill="var(--bg)"/><text class="lbl" x="154.0" y="264" text-anchor="middle" dominant-baseline="middle">/livox/custom_msg + /livox/imu</text>
<path class="e e-state" d="M154.0,312 L154.0,324" marker-end="url(#as)"/>
<path class="pulse p-state" d="M154.0,312 L154.0,324" pathLength="100" style="animation-delay:0.0s"/>
<rect x="115.525" y="311" width="76.95" height="14" rx="4" fill="var(--bg)"/><text class="lbl" x="154.0" y="318" text-anchor="middle" dominant-baseline="middle">/Odometry_loc</text>
<path class="e e-state" d="M264,237.0 L269.0,237.0 Q274,237.0 274.0,242.0 L274,505 Q274,512 281,512 L610,512"/>
<path class="pulse p-state" d="M264,237.0 L269.0,237.0 Q274,237.0 274.0,242.0 L274,505 Q274,512 281,512 L610,512" pathLength="100" style="animation-delay:0.0s"/>
<path class="e e-state" d="M274,399.0 L264,399.0" marker-end="url(#as)"/>
<path class="e e-state" d="M610,512 L610.0,295.0 Q610,291.0 614.0,291.0 L618,291.0" marker-end="url(#as)"/>
<rect x="304.1" y="505" width="71.80000000000001" height="14" rx="4" fill="var(--bg)"/><text class="lbl" x="340" y="512" text-anchor="middle" dominant-baseline="middle">/livox/lidar</text>
<path class="e e-nav" d="M264,345.0 L289,345.0 Q296,345.0 296,338.0 L296,244.0 Q296,237.0 303,237.0 L326,237.0" marker-end="url(#an)"/>
<path class="pulse p-nav" d="M264,345.0 L289,345.0 Q296,345.0 296,338.0 L296,244.0 Q296,237.0 303,237.0 L326,237.0" pathLength="100" style="animation-delay:0.55s"/>
<g transform="rotate(-90 296 290)"><rect x="234.35" y="283" width="123.30000000000001" height="14" rx="4" fill="var(--bg)"/><text class="lbl" x="296" y="290" text-anchor="middle" dominant-baseline="middle">odom to base_footprint</text></g>
<path class="e e-nav" d="M264,399.0 L279,399.0 Q286,399.0 286,392.0 L286,298.0 Q286,291.0 293,291.0 L326,291.0" marker-end="url(#an)"/>
<path class="pulse p-nav" d="M264,399.0 L279,399.0 Q286,399.0 286,392.0 L286,298.0 Q286,291.0 293,291.0 L326,291.0" pathLength="100" style="animation-delay:0.55s"/>
<g transform="rotate(-90 286 364)"><rect x="268.125" y="357" width="35.75" height="14" rx="4" fill="var(--bg)"/><text class="lbl" x="286" y="364" text-anchor="middle" dominant-baseline="middle">/scan</text></g>
<path class="e e-nav" d="M570,291.0 L576.0,291.0 Q582,291.0 582.0,285.0 L582.0,243.0 Q582,237.0 576.0,237.0 L570,237.0" marker-end="url(#an)"/>
<path class="pulse p-nav" d="M570,291.0 L576.0,291.0 Q582,291.0 582.0,285.0 L582.0,243.0 Q582,237.0 576.0,237.0 L570,237.0" pathLength="100" style="animation-delay:0.55s"/>
<rect x="548.675" y="259" width="66.65" height="14" rx="4" fill="var(--bg)"/><text class="lbl" x="582" y="266" text-anchor="middle" dominant-baseline="middle">map to odom</text>
<path class="e e-man" d="M420,152 L420,216" marker-end="url(#am)"/>
<path class="pulse p-man" d="M420,152 L420,216" pathLength="100" style="animation-delay:0.3s"/>
<rect x="378.95" y="168" width="82.10000000000001" height="14" rx="4" fill="var(--bg)"/><text class="lbl" x="420" y="175" text-anchor="middle" dominant-baseline="middle">NavigateToPose</text>
<path class="e e-man" d="M420,168 L323,168 Q316,168 316,175 L316.0,340.0 Q316,345.0 321.0,345.0 L326,345.0" marker-end="url(#am)"/>
<path class="pulse p-man" d="M420,168 L323,168 Q316,168 316,175 L316.0,340.0 Q316,345.0 321.0,345.0 L326,345.0" pathLength="100" style="animation-delay:0.3s"/>
<g transform="rotate(-90 316 262)"><rect x="274.95" y="255" width="82.10000000000001" height="14" rx="4" fill="var(--bg)"/><text class="lbl" x="316" y="262" text-anchor="middle" dominant-baseline="middle">ApproachObject</text></g>
<path class="e e-man" d="M540,152 L540,161 Q540,168 547,168 L587,168 Q594,168 594,175 L594,230.0 Q594,237.0 601,237.0 L618,237.0" marker-end="url(#am)"/>
<path class="pulse p-man" d="M540,152 L540,161 Q540,168 547,168 L587,168 Q594,168 594,175 L594,230.0 Q594,237.0 601,237.0 L618,237.0" pathLength="100" style="animation-delay:0.3s"/>
<rect x="560.675" y="183" width="66.65" height="14" rx="4" fill="var(--bg)"/><text class="lbl" x="594" y="190" text-anchor="middle" dominant-baseline="middle">Pick, Place</text>
<path class="e e-nav" d="M570,237.0 L573.0,237.0 Q576,237.0 576.0,240.0 L576.0,396.0 Q576,399.0 573.0,399.0 L570,399.0" marker-end="url(#an)"/>
<path class="pulse p-nav" d="M570,237.0 L573.0,237.0 Q576,237.0 576.0,240.0 L576.0,396.0 Q576,399.0 573.0,399.0 L570,399.0" pathLength="100" style="animation-delay:0.55s"/>
<rect x="550.4" y="341" width="51.2" height="14" rx="4" fill="var(--bg)"/><text class="lbl" x="576" y="348" text-anchor="middle" dominant-baseline="middle">/cmd_vel</text>
<path class="e e-nav" d="M448.0,366 L448.0,378" marker-end="url(#an)"/>
<path class="pulse p-nav" d="M448.0,366 L448.0,378" pathLength="100" style="animation-delay:0.55s"/>
<rect x="399.225" y="365" width="97.55000000000001" height="14" rx="4" fill="var(--bg)"/><text class="lbl" x="448.0" y="372" text-anchor="middle" dominant-baseline="middle">/cmd_vel_approach</text>
<path class="e e-man" d="M737.0,258 L737.0,270" marker-end="url(#am)"/>
<path class="pulse p-man" d="M737.0,258 L737.0,270" pathLength="100" style="animation-delay:0.3s"/>
<path class="e e-man" d="M856,345.0 L859.0,345.0 Q862,345.0 862.0,342.0 L862.0,240.0 Q862,237.0 859.0,237.0 L856,237.0" marker-end="url(#am)"/>
<path class="pulse p-man" d="M856,345.0 L859.0,345.0 Q862,345.0 862.0,342.0 L862.0,240.0 Q862,237.0 859.0,237.0 L856,237.0" pathLength="100" style="animation-delay:0.3s"/>
<rect x="836.4" y="293" width="51.2" height="14" rx="4" fill="var(--bg)"/><text class="lbl" x="862" y="300" text-anchor="middle" dominant-baseline="middle">/objects</text>
<rect class="band" x="28" y="566" width="844" height="84"/>
<path d="M39,566.5 h822" stroke="var(--ctrl)" stroke-width="2.5" stroke-linecap="round" opacity="0.85"/>
<text class="grp" x="41" y="587" fill="var(--ctrl)">BRIDGING AND CONTROL</text>
<rect class="card" x="44" y="600" width="180" height="42"/>
<path d="M44.5,608 v26" stroke="var(--ctrl)" stroke-width="3.5" stroke-linecap="round"/>
<text class="t" x="57" y="616.0" dominant-baseline="middle">g1_loco_authority</text>
<text class="s" x="57" y="630.0" dominant-baseline="middle">single writer, enforced</text>
<rect class="card" x="356" y="600" width="184" height="42"/>
<path d="M356.5,608 v26" stroke="var(--ctrl)" stroke-width="3.5" stroke-linecap="round"/>
<text class="t" x="369" y="616.0" dominant-baseline="middle">g1_loco_bridge</text>
<text class="s" x="369" y="630.0" dominant-baseline="middle">/api/sport/*</text>
<rect class="card" x="556" y="600" width="150" height="42"/>
<path d="M556.5,608 v26" stroke="var(--ctrl)" stroke-width="3.5" stroke-linecap="round"/>
<text class="t" x="569" y="616.0" dominant-baseline="middle">G1ArmSdkSystem</text>
<text class="s" x="569" y="630.0" dominant-baseline="middle">arms + waist</text>
<rect class="card" x="722" y="600" width="150" height="42"/>
<path d="M722.5,608 v26" stroke="var(--ctrl)" stroke-width="3.5" stroke-linecap="round"/>
<text class="t" x="735" y="616.0" dominant-baseline="middle">G1Dex3System</text>
<text class="s" x="735" y="630.0" dominant-baseline="middle">one per hand</text>
<path class="e e-ctrl" d="M448.0,420 L448.0,600" marker-end="url(#ac)"/>
<path class="pulse p-ctrl" d="M448.0,420 L448.0,600" pathLength="100" style="animation-delay:1.15s"/>
<rect x="383.775" y="519" width="128.45" height="14" rx="4" fill="var(--bg)"/><text class="lbl" x="448.0" y="526" text-anchor="middle" dominant-baseline="middle">/g1_loco_bridge/cmd_vel</text>
<path class="e e-ctrl" d="M856,291.0 L862.0,291.0 Q868,291.0 868.0,297.0 L868,533 Q868,540 861,540 L625,540"/>
<path class="pulse p-ctrl" d="M856,291.0 L862.0,291.0 Q868,291.0 868.0,297.0 L868,533 Q868,540 861,540 L625,540" pathLength="100" style="animation-delay:1.15s"/>
<path class="e e-ctrl" d="M631,540 L631,600" marker-end="url(#ac)"/>
<path class="e e-ctrl" d="M797,540 L797,600" marker-end="url(#ac)"/>
<rect x="670.925" y="533" width="118.15" height="14" rx="4" fill="var(--bg)"/><text class="lbl" x="730" y="540" text-anchor="middle" dominant-baseline="middle">FollowJointTrajectory</text>
<path class="e e-ctrl e-dash" d="M224,621 L356,621" marker-end="url(#ac)"/>
<rect x="225.775" y="614" width="128.45" height="14" rx="4" fill="var(--bg)"/><text class="lbl" x="290" y="621" text-anchor="middle" dominant-baseline="middle">gates the velocity path</text>
<path d="M40,672 H860" stroke="var(--ctrl)" stroke-width="2" opacity="0.45" stroke-linecap="round"/>
<path class="e e-ctrl" d="M448,642 L448,672" marker-end="url(#ac)"/>
<path class="pulse p-ctrl" d="M448,642 L448,672" pathLength="100" style="animation-delay:1.15s"/>
<rect x="396.65" y="653" width="102.7" height="14" rx="4" fill="var(--bg)"/><text class="lbl" x="448" y="660" text-anchor="middle" dominant-baseline="middle">/api/sport/request</text>
<path class="e e-ctrl" d="M631,642 L631,672" marker-end="url(#ac)"/>
<path class="pulse p-ctrl" d="M631,642 L631,672" pathLength="100" style="animation-delay:1.15s"/>
<rect x="600.25" y="653" width="61.5" height="14" rx="4" fill="var(--bg)"/><text class="lbl" x="631" y="660" text-anchor="middle" dominant-baseline="middle">rt/arm_sdk</text>
<path class="e e-ctrl" d="M797,642 L797,672" marker-end="url(#ac)"/>
<path class="pulse p-ctrl" d="M797,642 L797,672" pathLength="100" style="animation-delay:1.15s"/>
<rect x="758.525" y="653" width="76.95" height="14" rx="4" fill="var(--bg)"/><text class="lbl" x="797" y="660" text-anchor="middle" dominant-baseline="middle">rt/dex3/*/cmd</text>
<text class="lbl" x="44" y="664" fill="var(--ctrl)">the same DDS topics either way</text>
<rect class="band" x="28" y="686" width="844" height="90"/>
<path d="M39,686.5 h822" stroke="var(--hw)" stroke-width="2.5" stroke-linecap="round" opacity="0.85"/>
<text class="grp" x="41" y="707" fill="var(--hw)">ROBOT</text>
<rect class="card" x="44" y="720" width="396" height="44"/>
<path d="M44.5,728 v28" stroke="var(--sim)" stroke-width="3.5" stroke-linecap="round"/>
<text class="t" x="57" y="737.0" dominant-baseline="middle">unitree_mujoco + motion_service_sim</text>
<text class="s" x="57" y="751.0" dominant-baseline="middle">physics, walking policy, the same DDS topics</text>
<rect x="403.2" y="728" width="27.799999999999997" height="13.5" rx="6.75" fill="var(--sim-bg)" stroke="var(--sim)" stroke-width="0.9" opacity="0.9"/><text x="417.1" y="735.4" text-anchor="middle" dominant-baseline="middle" font-size="8" font-weight="700" letter-spacing=".05em" fill="var(--sim)">SIM</text>
<rect class="card" x="466" y="720" width="390" height="44"/>
<path d="M466.5,728 v28" stroke="var(--hw)" stroke-width="3.5" stroke-linecap="round"/>
<text class="t" x="479" y="737.0" dominant-baseline="middle">Unitree G1</text>
<text class="s" x="479" y="751.0" dominant-baseline="middle">onboard motion service</text>
<rect x="808.0" y="728" width="39.0" height="13.5" rx="6.75" fill="var(--hw-bg)" stroke="var(--hw)" stroke-width="0.9" opacity="0.9"/><text x="827.5" y="735.4" text-anchor="middle" dominant-baseline="middle" font-size="8" font-weight="700" letter-spacing=".05em" fill="var(--hw)">ROBOT</text>
<path class="e e-ctrl" d="M242,672 L242,720" marker-end="url(#ac)"/>
<path class="e e-ctrl" d="M658,672 L658,720" marker-end="url(#ac)"/>
<path class="e e-state" d="M44,742 L21,742 Q14,742 14,735 L14,237.0"/>
<path class="pulse p-state" d="M44,742 L21,742 Q14,742 14,735 L14,237.0" pathLength="100" style="animation-delay:1.75s"/>
<path class="e e-state" d="M14,237.0 L44,237.0" marker-end="url(#as)"/>
<path class="e e-state" d="M14,345.0 L44,345.0" marker-end="url(#as)"/>
<path class="e e-state" d="M14,453.0 L44,453.0" marker-end="url(#as)"/>
<g transform="rotate(-90 14 560)"><rect x="-81.125" y="553" width="190.25" height="14" rx="4" fill="var(--bg)"/><text class="lbl" x="14" y="560" text-anchor="middle" dominant-baseline="middle">sensors, /lowstate, /sportmodestate</text></g>
<path d="M28,794 h20" stroke="var(--state)" stroke-width="2.8" stroke-linecap="round"/>
<text class="lbl" x="55" y="797">sensing and state</text>
<path d="M171.4,794 h20" stroke="var(--nav)" stroke-width="2.8" stroke-linecap="round"/>
<text class="lbl" x="198.4" y="797">localise and plan</text>
<path d="M314.8,794 h20" stroke="var(--man)" stroke-width="2.8" stroke-linecap="round"/>
<text class="lbl" x="341.8" y="797">orchestration</text>
<path d="M437.40000000000003,794 h20" stroke="var(--ctrl)" stroke-width="2.8" stroke-linecap="round"/>
<text class="lbl" x="464.40000000000003" y="797">commands to the robot</text>
<text class="lbl" x="28" y="818">On the robot the simulation card is the onboard motion service and the LiDAR front end is livox_ros_driver2. Nothing above the rail changes.</text>
</svg>